<svg width="149" height="57" viewBox="0 0 149 57" fill="none" xmlns="http://www.w3.org/2000/svg">
<path d="M2.56108 10.2289H7.72017L14.6293 27.0925H14.902L21.8111 10.2289H26.9702V33.5016H22.9247V17.5129H22.7088L16.277 33.4334H13.2543L6.82244 17.4789H6.60653V33.5016H2.56108V10.2289ZM33.5611 33.5016V10.2289H37.777V20.0811H48.5611V10.2289H52.7884V33.5016H48.5611V23.6152H37.777V33.5016H33.5611ZM59.3736 33.5016V10.2289H63.5895V20.922H63.8736L72.9531 10.2289H78.1009L69.1009 20.672L78.1804 33.5016H73.1122L66.169 23.5243L63.5895 26.5698V33.5016H59.3736Z" fill="#120D21"/>
<path d="M15.8501 45.1735V44.2289H21.4787V45.1735H19.2095V51.5016H18.1157V45.1735H15.8501ZM22.8224 51.5016V44.2289H27.3821V45.1735H23.9197V47.3894H27.1442V48.3304H23.9197V50.557H27.4247V51.5016H22.8224ZM34.9883 46.5939H33.8804C33.8377 46.3572 33.7584 46.1488 33.6424 45.9689C33.5264 45.789 33.3844 45.6363 33.2163 45.5108C33.0482 45.3853 32.86 45.2906 32.6517 45.2267C32.4457 45.1628 32.2267 45.1308 31.9947 45.1308C31.5757 45.1308 31.2004 45.2362 30.869 45.4469C30.5399 45.6576 30.2795 45.9665 30.0877 46.3737C29.8984 46.7809 29.8037 47.2781 29.8037 47.8652C29.8037 48.4571 29.8984 48.9566 30.0877 49.3638C30.2795 49.771 30.5411 50.0788 30.8725 50.2871C31.204 50.4954 31.5769 50.5996 31.9912 50.5996C32.2208 50.5996 32.4386 50.5688 32.6446 50.5073C32.8529 50.4433 33.0411 50.3498 33.2092 50.2267C33.3773 50.1036 33.5193 49.9533 33.6353 49.7757C33.7537 49.5958 33.8354 49.3898 33.8804 49.1578L34.9883 49.1614C34.9291 49.5189 34.8143 49.8479 34.6439 50.1486C34.4758 50.4469 34.2591 50.7049 33.994 50.9228C33.7312 51.1382 33.4306 51.3051 33.092 51.4235C32.7535 51.5418 32.3841 51.601 31.9841 51.601C31.3543 51.601 30.7932 51.4519 30.3008 51.1536C29.8084 50.8529 29.4201 50.4232 29.136 49.8645C28.8543 49.3058 28.7135 48.6394 28.7135 47.8652C28.7135 47.0887 28.8555 46.4223 29.1396 45.8659C29.4237 45.3072 29.8119 44.8787 30.3044 44.5804C30.7968 44.2798 31.3567 44.1294 31.9841 44.1294C32.3699 44.1294 32.7298 44.1851 33.0636 44.2963C33.3998 44.4052 33.7016 44.5662 33.9691 44.7793C34.2367 44.99 34.458 45.248 34.6332 45.5534C34.8084 45.8565 34.9268 46.2033 34.9883 46.5939ZM36.4013 51.5016V44.2289H37.4986V47.3894H41.1244V44.2289H42.2252V51.5016H41.1244V48.3304H37.4986V51.5016H36.4013ZM47.767 44.2289V51.5016H46.6697V44.2289H47.767ZM55.335 44.2289V51.5016H54.3265L50.6298 46.1678H50.5623V51.5016H49.465V44.2289H50.4806L54.1809 49.5698H54.2484V44.2289H55.335ZM63.0762 46.5939H61.9683C61.9256 46.3572 61.8463 46.1488 61.7303 45.9689C61.6143 45.789 61.4723 45.6363 61.3042 45.5108C61.1361 45.3853 60.9479 45.2906 60.7396 45.2267C60.5336 45.1628 60.3146 45.1308 60.0826 45.1308C59.6636 45.1308 59.2883 45.2362 58.9569 45.4469C58.6278 45.6576 58.3674 45.9665 58.1756 46.3737C57.9862 46.7809 57.8915 47.2781 57.8915 47.8652C57.8915 48.4571 57.9862 48.9566 58.1756 49.3638C58.3674 49.771 58.629 50.0788 58.9604 50.2871C59.2919 50.4954 59.6647 50.5996 60.079 50.5996C60.3087 50.5996 60.5265 50.5688 60.7325 50.5073C60.9408 50.4433 61.129 50.3498 61.2971 50.2267C61.4652 50.1036 61.6072 49.9533 61.7232 49.7757C61.8416 49.5958 61.9233 49.3898 61.9683 49.1578L63.0762 49.1614C63.017 49.5189 62.9022 49.8479 62.7317 50.1486C62.5637 50.4469 62.347 50.7049 62.0819 50.9228C61.8191 51.1382 61.5184 51.3051 61.1799 51.4235C60.8414 51.5418 60.472 51.601 60.0719 51.601C59.4422 51.601 58.8811 51.4519 58.3887 51.1536C57.8963 50.8529 57.508 50.4232 57.2239 49.8645C56.9422 49.3058 56.8013 48.6394 56.8013 47.8652C56.8013 47.0887 56.9434 46.4223 57.2275 45.8659C57.5116 45.3072 57.8998 44.8787 58.3923 44.5804C58.8847 44.2798 59.4446 44.1294 60.0719 44.1294C60.4578 44.1294 60.8177 44.1851 61.1515 44.2963C61.4877 44.4052 61.7895 44.5662 62.057 44.7793C62.3245 44.99 62.5459 45.248 62.7211 45.5534C62.8963 45.8565 63.0147 46.2033 63.0762 46.5939Z" fill="#120D21"/>
<path fill-rule="evenodd" clip-rule="evenodd" d="M117.302 26.699L122.825 22.3089C123.158 22.0502 123.562 21.9015 123.983 21.8835C124.178 21.8729 124.372 21.8519 124.564 21.8206C124.723 21.7956 124.879 21.7578 125.031 21.7075C125.139 21.6757 125.24 21.6238 125.329 21.5546C125.361 21.5358 125.385 21.507 125.399 21.4728C125.412 21.4385 125.413 21.4008 125.403 21.3657C125.36 21.2871 125.291 21.2264 125.207 21.1948C125.075 21.1324 124.935 21.0863 124.792 21.0573C124.595 21.0158 124.396 20.9875 124.195 20.9725C123.971 20.9543 123.746 20.9483 123.521 20.9545C123.31 20.9592 123.099 20.9751 122.89 21.002C122.711 21.0251 122.534 21.0608 122.36 21.1087C122.232 21.1418 122.111 21.1952 122 21.2668C121.969 21.2832 121.943 21.3066 121.924 21.3349C121.904 21.3633 121.891 21.3958 121.887 21.4299C121.89 21.4628 121.9 21.4945 121.918 21.5223C121.936 21.55 121.961 21.573 121.989 21.5893C122.081 21.6522 122.182 21.6995 122.289 21.7293C122.309 21.7355 122.332 21.7412 122.354 21.7471C122.37 21.7509 122.385 21.7548 122.4 21.7589C122.4 21.7589 122.771 21.8334 122.339 22.1662L116.983 26.2921C116.935 26.2427 116.884 26.1952 116.832 26.1499C116.457 25.8215 116.157 25.4167 115.952 24.9628C115.746 24.5089 115.64 24.0164 115.641 23.5182V6.94181C115.641 5.95236 116.027 4.97962 116.799 4.34741C117.093 4.10365 117.326 3.79454 117.48 3.44471C117.634 3.09489 117.703 2.71404 117.684 2.33254C117.644 1.71099 117.372 1.1269 116.923 0.695258C116.473 0.263616 115.879 0.0156856 115.255 0.000273084C114.751 -0.00723027 114.257 0.140051 113.84 0.422212C113.422 0.704373 113.101 1.10781 112.921 1.578C112.74 2.04819 112.708 2.56246 112.83 3.0513C112.951 3.54015 113.219 3.98001 113.599 4.31142C113.975 4.63915 114.277 5.04361 114.483 5.49757C114.69 5.95153 114.796 6.44443 114.796 6.94309V23.5195C114.796 24.0181 114.689 24.511 114.483 24.9649C114.276 25.4189 113.975 25.8233 113.599 26.1512C113.335 26.3818 113.123 26.6663 112.977 26.9856C112.912 27.1302 112.86 27.2804 112.824 27.4341L99.1935 25.2567C98.6791 25.1757 98.9209 24.9264 98.9209 24.9264C98.9485 24.899 98.9688 24.8652 98.9801 24.8279C98.9913 24.7907 98.993 24.7512 98.9852 24.7131C98.9691 24.6741 98.9451 24.6388 98.9148 24.6094C98.8845 24.58 98.8485 24.5571 98.809 24.5422C98.6797 24.4837 98.5422 24.4451 98.4013 24.4278C98.1831 24.3985 97.9629 24.3865 97.7428 24.3919C97.4907 24.398 97.2391 24.4182 96.9892 24.4523C96.7295 24.4862 96.4719 24.5342 96.2175 24.5962C95.9779 24.6533 95.7424 24.7267 95.5127 24.8159C95.3356 24.8806 95.1671 24.9669 95.0112 25.0729C94.9141 25.1322 94.8401 25.2229 94.8015 25.3299C94.7928 25.3722 94.7978 25.4163 94.8159 25.4556C94.8339 25.4948 94.864 25.5274 94.9019 25.5484C95.0333 25.6279 95.1802 25.6787 95.3327 25.6974C95.536 25.73 95.7416 25.7454 95.9474 25.7437C96.1873 25.7421 96.4269 25.7271 96.6651 25.6987C96.9139 25.6704 97.1611 25.6297 97.4059 25.5766H97.4136C97.9292 25.4637 98.4616 25.4493 98.9826 25.5342L112.766 27.7868C112.76 27.8583 112.757 27.9301 112.757 28.0022C112.757 28.0311 112.757 28.0599 112.758 28.0888C112.757 28.0946 112.756 28.1005 112.755 28.1064C112.748 28.1652 112.755 28.2242 112.773 28.2795C112.802 28.5346 112.871 28.7841 112.977 29.0188C113.017 29.1051 113.061 29.1888 113.109 29.2696L98.6739 40.3897C97.9137 40.9747 96.9953 41.3184 96.0374 41.3765H96.0246C95.5467 41.4081 95.0729 41.4855 94.6099 41.6078C94.1161 41.7371 93.6346 41.909 93.1708 42.1218C92.6922 42.3393 92.2357 42.6022 91.8075 42.907C91.3696 43.2138 90.9766 43.5802 90.6398 43.9953C90.3659 44.3263 90.166 44.7118 90.0533 45.1261C89.9599 45.472 89.9899 45.8396 90.1382 46.1657C90.3202 46.5167 90.6183 46.7937 90.9819 46.9495C91.4541 47.1577 91.964 47.267 92.4801 47.2708C93.0897 47.2819 93.6981 47.2128 94.2897 47.0652C94.924 46.9121 95.5392 46.6884 96.1236 46.3983C96.6923 46.1208 97.2238 45.7728 97.7055 45.3626C98.0699 45.0579 98.3868 44.7006 98.6456 44.3025C98.845 44.0024 98.9766 43.6626 99.0314 43.3066C99.0746 43.0157 99.0298 42.7186 98.9028 42.4534C98.797 42.2226 98.7693 41.9636 98.8241 41.7157C98.8789 41.4678 99.0131 41.2445 99.2063 41.0797L113.477 29.739C113.516 29.7784 113.557 29.8165 113.599 29.8532C113.975 30.1807 114.277 30.5849 114.483 31.0387C114.69 31.4924 114.796 31.9851 114.796 32.4836V49.06C114.796 50.0482 114.411 51.0209 113.639 51.6531C113.344 51.8969 113.111 52.206 112.958 52.5558C112.804 52.9057 112.734 53.2865 112.754 53.668C112.793 54.2892 113.064 54.8732 113.512 55.3052C113.96 55.7373 114.554 55.9861 115.177 56.0028C115.681 56.0104 116.175 55.8631 116.593 55.5809C117.01 55.2987 117.331 54.8953 117.512 54.4251C117.692 53.9549 117.724 53.4407 117.603 52.9518C117.482 52.463 117.213 52.0231 116.833 51.6917C116.458 51.3635 116.157 50.9586 115.952 50.5044C115.746 50.0502 115.64 49.5573 115.641 49.0587V32.4823C115.641 31.9839 115.748 31.4912 115.954 31.0374C116.161 30.5837 116.462 30.1794 116.839 29.852C117.102 29.6208 117.313 29.336 117.457 29.0166C117.521 28.8752 117.571 28.7285 117.607 28.5784L139.992 32.2406C140.533 32.3282 141.037 32.5721 141.441 32.9422C141.676 33.1468 141.935 33.3216 142.213 33.4626C142.567 33.6446 142.936 33.7971 143.315 33.9188C143.757 34.0612 144.209 34.1724 144.667 34.2516C145.171 34.3409 145.682 34.3877 146.195 34.3917C146.61 34.3976 147.024 34.3544 147.429 34.2632C147.716 34.2089 147.986 34.0863 148.215 33.9059C148.296 33.8446 148.359 33.7629 148.398 33.6692C148.437 33.5755 148.45 33.4732 148.436 33.3727C148.375 33.128 148.235 32.9101 148.039 32.752C147.776 32.5228 147.482 32.3304 147.167 32.1802C146.783 31.9913 146.385 31.8352 145.975 31.7138C145.519 31.5762 145.054 31.4718 144.583 31.4015C144.179 31.3391 143.771 31.3043 143.363 31.2974C143.018 31.2903 142.674 31.3126 142.334 31.3642C142.068 31.4029 141.808 31.4777 141.562 31.5865C141.112 31.8003 140.608 31.8725 140.117 31.7934L117.666 28.2081C117.672 28.1403 117.675 28.0722 117.675 28.004C117.681 27.9678 117.683 27.9306 117.68 27.8935C117.677 27.8764 117.674 27.8596 117.67 27.843C117.651 27.5463 117.578 27.255 117.455 26.9836C117.41 26.8853 117.359 26.7902 117.302 26.699Z" fill="url(#paint0_linear_2888_1657)"/>
<defs>
<linearGradient id="paint0_linear_2888_1657" x1="123.447" y1="58.5" x2="150.691" y2="31.3253" gradientUnits="userSpaceOnUse">
<stop stop-color="#422EA9"/>
<stop offset="0.6518" stop-color="#B9308A"/>
<stop offset="0.96875" stop-color="#FF8F27"/>
</linearGradient>
</defs>
</svg>
